<mxfile host="app.diagrams.net" modified="2023-09-15T09:14:15.691Z" agent="Mozilla/5.0 (Windows NT 10.0; Win64; x64) AppleWebKit/537.36 (KHTML, like Gecko) Chrome/116.0.0.0 Safari/537.36" etag="n4Go3Gemf99-OCSiJCuX" version="21.7.4" type="device">
  <diagram name="Page-1" id="KX2nUUPIr62F4fqyjSt9">
    <mxGraphModel dx="1229" dy="539" grid="1" gridSize="10" guides="1" tooltips="1" connect="1" arrows="1" fold="1" page="1" pageScale="1" pageWidth="850" pageHeight="1100" math="0" shadow="0">
      <root>
        <mxCell id="0" />
        <mxCell id="1" parent="0" />
        <mxCell id="tpeHLbeyVTgynvqw5VP7-13" style="edgeStyle=orthogonalEdgeStyle;rounded=0;orthogonalLoop=1;jettySize=auto;html=1;exitX=0.5;exitY=1;exitDx=0;exitDy=0;entryX=0.5;entryY=0;entryDx=0;entryDy=0;" edge="1" parent="1" source="tpeHLbeyVTgynvqw5VP7-1" target="tpeHLbeyVTgynvqw5VP7-2">
          <mxGeometry relative="1" as="geometry" />
        </mxCell>
        <mxCell id="tpeHLbeyVTgynvqw5VP7-1" value="Start" style="rounded=1;whiteSpace=wrap;html=1;" vertex="1" parent="1">
          <mxGeometry x="150" y="60" width="120" height="60" as="geometry" />
        </mxCell>
        <mxCell id="tpeHLbeyVTgynvqw5VP7-14" style="edgeStyle=orthogonalEdgeStyle;rounded=0;orthogonalLoop=1;jettySize=auto;html=1;exitX=0.5;exitY=1;exitDx=0;exitDy=0;entryX=0.5;entryY=0;entryDx=0;entryDy=0;" edge="1" parent="1" source="tpeHLbeyVTgynvqw5VP7-2" target="tpeHLbeyVTgynvqw5VP7-3">
          <mxGeometry relative="1" as="geometry" />
        </mxCell>
        <mxCell id="tpeHLbeyVTgynvqw5VP7-2" value="password = &#39;Banana" style="rounded=0;whiteSpace=wrap;html=1;" vertex="1" parent="1">
          <mxGeometry x="150" y="160" width="120" height="60" as="geometry" />
        </mxCell>
        <mxCell id="tpeHLbeyVTgynvqw5VP7-15" style="edgeStyle=orthogonalEdgeStyle;rounded=0;orthogonalLoop=1;jettySize=auto;html=1;exitX=0.5;exitY=1;exitDx=0;exitDy=0;entryX=0.5;entryY=0;entryDx=0;entryDy=0;" edge="1" parent="1" source="tpeHLbeyVTgynvqw5VP7-3" target="tpeHLbeyVTgynvqw5VP7-5">
          <mxGeometry relative="1" as="geometry" />
        </mxCell>
        <mxCell id="tpeHLbeyVTgynvqw5VP7-3" value="counter = 0" style="rounded=0;whiteSpace=wrap;html=1;" vertex="1" parent="1">
          <mxGeometry x="150" y="260" width="120" height="60" as="geometry" />
        </mxCell>
        <mxCell id="tpeHLbeyVTgynvqw5VP7-16" style="edgeStyle=orthogonalEdgeStyle;rounded=0;orthogonalLoop=1;jettySize=auto;html=1;exitX=0.5;exitY=1;exitDx=0;exitDy=0;entryX=0.5;entryY=0;entryDx=0;entryDy=0;" edge="1" parent="1" source="tpeHLbeyVTgynvqw5VP7-5" target="tpeHLbeyVTgynvqw5VP7-6">
          <mxGeometry relative="1" as="geometry" />
        </mxCell>
        <mxCell id="tpeHLbeyVTgynvqw5VP7-5" value="correctCheck = False" style="rounded=0;whiteSpace=wrap;html=1;" vertex="1" parent="1">
          <mxGeometry x="150" y="360" width="120" height="60" as="geometry" />
        </mxCell>
        <mxCell id="tpeHLbeyVTgynvqw5VP7-10" value="false" style="edgeStyle=orthogonalEdgeStyle;rounded=0;orthogonalLoop=1;jettySize=auto;html=1;exitX=1;exitY=0.5;exitDx=0;exitDy=0;entryX=0;entryY=0.5;entryDx=0;entryDy=0;" edge="1" parent="1" source="tpeHLbeyVTgynvqw5VP7-6" target="tpeHLbeyVTgynvqw5VP7-7">
          <mxGeometry relative="1" as="geometry" />
        </mxCell>
        <mxCell id="tpeHLbeyVTgynvqw5VP7-17" value="true" style="edgeStyle=orthogonalEdgeStyle;rounded=0;orthogonalLoop=1;jettySize=auto;html=1;exitX=0.5;exitY=1;exitDx=0;exitDy=0;" edge="1" parent="1" source="tpeHLbeyVTgynvqw5VP7-6">
          <mxGeometry relative="1" as="geometry">
            <mxPoint x="210" y="670" as="targetPoint" />
          </mxGeometry>
        </mxCell>
        <mxCell id="tpeHLbeyVTgynvqw5VP7-6" value="while ((counter &amp;lt; 3) and (correctCheck == False))" style="rhombus;whiteSpace=wrap;html=1;" vertex="1" parent="1">
          <mxGeometry x="130" y="450" width="160" height="160" as="geometry" />
        </mxCell>
        <mxCell id="tpeHLbeyVTgynvqw5VP7-9" value="false" style="edgeStyle=orthogonalEdgeStyle;rounded=0;orthogonalLoop=1;jettySize=auto;html=1;exitX=1;exitY=0.5;exitDx=0;exitDy=0;entryX=0;entryY=0.5;entryDx=0;entryDy=0;" edge="1" parent="1" source="tpeHLbeyVTgynvqw5VP7-7" target="tpeHLbeyVTgynvqw5VP7-8">
          <mxGeometry relative="1" as="geometry" />
        </mxCell>
        <mxCell id="tpeHLbeyVTgynvqw5VP7-11" value="true" style="edgeStyle=orthogonalEdgeStyle;rounded=0;orthogonalLoop=1;jettySize=auto;html=1;exitX=0.5;exitY=0;exitDx=0;exitDy=0;" edge="1" parent="1" source="tpeHLbeyVTgynvqw5VP7-7">
          <mxGeometry relative="1" as="geometry">
            <mxPoint x="452.5" y="389.9999999999999" as="targetPoint" />
          </mxGeometry>
        </mxCell>
        <mxCell id="tpeHLbeyVTgynvqw5VP7-7" value="if (correctCheck == True)" style="rhombus;whiteSpace=wrap;html=1;" vertex="1" parent="1">
          <mxGeometry x="370" y="452.5" width="165" height="155" as="geometry" />
        </mxCell>
        <mxCell id="tpeHLbeyVTgynvqw5VP7-35" style="edgeStyle=orthogonalEdgeStyle;rounded=0;orthogonalLoop=1;jettySize=auto;html=1;exitX=0.5;exitY=0;exitDx=0;exitDy=0;entryX=0.5;entryY=1;entryDx=0;entryDy=0;" edge="1" parent="1" source="tpeHLbeyVTgynvqw5VP7-8" target="tpeHLbeyVTgynvqw5VP7-33">
          <mxGeometry relative="1" as="geometry" />
        </mxCell>
        <mxCell id="tpeHLbeyVTgynvqw5VP7-8" value="&lt;br&gt;print(&#39;You used all your tries. Game Over!&#39;)" style="rounded=0;whiteSpace=wrap;html=1;" vertex="1" parent="1">
          <mxGeometry x="600" y="487.5" width="150" height="85" as="geometry" />
        </mxCell>
        <mxCell id="tpeHLbeyVTgynvqw5VP7-34" style="edgeStyle=orthogonalEdgeStyle;rounded=0;orthogonalLoop=1;jettySize=auto;html=1;exitX=1;exitY=0.5;exitDx=0;exitDy=0;entryX=0;entryY=0.5;entryDx=0;entryDy=0;" edge="1" parent="1" source="tpeHLbeyVTgynvqw5VP7-12" target="tpeHLbeyVTgynvqw5VP7-33">
          <mxGeometry relative="1" as="geometry" />
        </mxCell>
        <mxCell id="tpeHLbeyVTgynvqw5VP7-12" value="print(&#39;Correct password! &#39;)" style="rounded=0;whiteSpace=wrap;html=1;" vertex="1" parent="1">
          <mxGeometry x="392.5" y="330" width="120" height="60" as="geometry" />
        </mxCell>
        <mxCell id="tpeHLbeyVTgynvqw5VP7-21" style="edgeStyle=orthogonalEdgeStyle;rounded=0;orthogonalLoop=1;jettySize=auto;html=1;exitX=0.5;exitY=1;exitDx=0;exitDy=0;entryX=0.5;entryY=0;entryDx=0;entryDy=0;" edge="1" parent="1" target="tpeHLbeyVTgynvqw5VP7-20">
          <mxGeometry relative="1" as="geometry">
            <mxPoint x="210" y="730" as="sourcePoint" />
          </mxGeometry>
        </mxCell>
        <mxCell id="tpeHLbeyVTgynvqw5VP7-23" value="false" style="edgeStyle=orthogonalEdgeStyle;rounded=0;orthogonalLoop=1;jettySize=auto;html=1;exitX=1;exitY=0.5;exitDx=0;exitDy=0;entryX=0;entryY=0.5;entryDx=0;entryDy=0;" edge="1" parent="1" source="tpeHLbeyVTgynvqw5VP7-20" target="tpeHLbeyVTgynvqw5VP7-22">
          <mxGeometry relative="1" as="geometry" />
        </mxCell>
        <mxCell id="tpeHLbeyVTgynvqw5VP7-24" value="true" style="edgeStyle=orthogonalEdgeStyle;rounded=0;orthogonalLoop=1;jettySize=auto;html=1;exitX=0.5;exitY=1;exitDx=0;exitDy=0;" edge="1" parent="1" source="tpeHLbeyVTgynvqw5VP7-20">
          <mxGeometry relative="1" as="geometry">
            <mxPoint x="210" y="1000" as="targetPoint" />
          </mxGeometry>
        </mxCell>
        <mxCell id="tpeHLbeyVTgynvqw5VP7-20" value="if (userInput == password)" style="rhombus;whiteSpace=wrap;html=1;" vertex="1" parent="1">
          <mxGeometry x="130" y="790" width="160" height="160" as="geometry" />
        </mxCell>
        <mxCell id="tpeHLbeyVTgynvqw5VP7-29" style="edgeStyle=orthogonalEdgeStyle;rounded=0;orthogonalLoop=1;jettySize=auto;html=1;exitX=0.5;exitY=1;exitDx=0;exitDy=0;entryX=1;entryY=0.5;entryDx=0;entryDy=0;" edge="1" parent="1" source="tpeHLbeyVTgynvqw5VP7-22" target="tpeHLbeyVTgynvqw5VP7-27">
          <mxGeometry relative="1" as="geometry" />
        </mxCell>
        <mxCell id="tpeHLbeyVTgynvqw5VP7-22" value="print(&#39;Incorrect, try again &#39;)" style="rounded=0;whiteSpace=wrap;html=1;" vertex="1" parent="1">
          <mxGeometry x="365" y="840" width="120" height="60" as="geometry" />
        </mxCell>
        <mxCell id="tpeHLbeyVTgynvqw5VP7-28" style="edgeStyle=orthogonalEdgeStyle;rounded=0;orthogonalLoop=1;jettySize=auto;html=1;exitX=0.5;exitY=1;exitDx=0;exitDy=0;entryX=0.5;entryY=0;entryDx=0;entryDy=0;" edge="1" parent="1" source="tpeHLbeyVTgynvqw5VP7-25" target="tpeHLbeyVTgynvqw5VP7-27">
          <mxGeometry relative="1" as="geometry" />
        </mxCell>
        <mxCell id="tpeHLbeyVTgynvqw5VP7-25" value="correctCheck = True" style="rounded=0;whiteSpace=wrap;html=1;" vertex="1" parent="1">
          <mxGeometry x="150" y="1000" width="120" height="60" as="geometry" />
        </mxCell>
        <mxCell id="tpeHLbeyVTgynvqw5VP7-30" style="edgeStyle=orthogonalEdgeStyle;rounded=0;orthogonalLoop=1;jettySize=auto;html=1;exitX=0;exitY=0.5;exitDx=0;exitDy=0;entryX=0;entryY=0.5;entryDx=0;entryDy=0;" edge="1" parent="1" source="tpeHLbeyVTgynvqw5VP7-27" target="tpeHLbeyVTgynvqw5VP7-6">
          <mxGeometry relative="1" as="geometry">
            <Array as="points">
              <mxPoint x="90" y="1130" />
              <mxPoint x="90" y="530" />
            </Array>
          </mxGeometry>
        </mxCell>
        <mxCell id="tpeHLbeyVTgynvqw5VP7-27" value="counter = (counter + 1)" style="rounded=0;whiteSpace=wrap;html=1;" vertex="1" parent="1">
          <mxGeometry x="150" y="1100" width="120" height="60" as="geometry" />
        </mxCell>
        <mxCell id="tpeHLbeyVTgynvqw5VP7-33" value="End" style="rounded=1;whiteSpace=wrap;html=1;" vertex="1" parent="1">
          <mxGeometry x="615" y="330" width="120" height="60" as="geometry" />
        </mxCell>
        <mxCell id="tpeHLbeyVTgynvqw5VP7-36" value="userInput = input(&#39;Enter your password: &#39;)" style="shape=parallelogram;perimeter=parallelogramPerimeter;whiteSpace=wrap;html=1;fixedSize=1;" vertex="1" parent="1">
          <mxGeometry x="150" y="670" width="120" height="60" as="geometry" />
        </mxCell>
      </root>
    </mxGraphModel>
  </diagram>
</mxfile>
